<svg id="Calque_1" data-name="Calque 1" xmlns="http://www.w3.org/2000/svg" viewBox="0 0 1920 480"><defs><style>.cls-1{fill:#212121;}.cls-2{fill:red;}</style></defs><title>Plan de travail 1</title><path class="cls-1" d="M556.51,152.65q-20.1-37.72-55.93-58.18T419.35,74H233.6l99.54,57.47h86.22q41.86,0,63.62,27.08t21.76,79.58v18.21q-.48,50.61-22.47,77.8t-63.62,27.2H329.72l-98.72,57H420.06q45.17-.23,81.12-20.81t55.69-57.94q19.74-37.36,19.75-85.37V238.38Q576.61,190.37,556.51,152.65Z"/><polygon class="cls-2" points="433.59 246.3 232.86 130.4 232.86 362.19 433.59 246.3"/><path class="cls-1" d="M902.62,132.41H797.14V419.27H726.2V132.41H622.14V74.94H902.62Z"/><path class="cls-1" d="M1076.44,393.26q-25.31,30.75-70,30.74-41.15,0-62.79-23.65t-22.11-69.29V163.39h68.35v165.5q0,40,36.42,40,34.76,0,47.77-24.15V163.39h68.58V419.27h-64.32Z"/><path class="cls-1" d="M1424.78,293.69q0,61.49-26.25,95.9T1325.22,424q-41.63,0-66.45-31.93l-3.07,27.2h-61.49V56h68.35V186.33q23.65-27.67,62.2-27.67,46.82,0,73.43,34.41t26.6,96.84Zm-68.35-5q0-38.78-12.3-56.64t-36.66-17.85q-32.64,0-44.93,26.72v101q12.53,27,45.41,27,33.11,0,43.51-32.64Q1356.44,320.65,1356.44,288.73Z"/><path class="cls-1" d="M1584.65,424q-56.29,0-91.64-34.53t-35.36-92v-6.62q0-38.54,14.9-68.94t42.21-46.82q27.31-16.43,62.31-16.44,52.5,0,82.65,33.11t30.15,93.89v27.91H1526.95q3.31,25.07,20,40.2t42.21,15.14q39.49,0,61.72-28.62l33.58,37.6q-15.38,21.76-41.62,33.94T1584.65,424Zm-7.8-210.24q-20.34,0-33,13.78T1527.66,267h95.07v-5.47q-.48-22.8-12.3-35.27T1576.85,213.76Z"/></svg>