<svg id="Calque_1" data-name="Calque 1" xmlns="http://www.w3.org/2000/svg" viewBox="0 0 1222 450.59"><defs><style>.cls-1{fill:#f90000;}.cls-2{font-size:400px;fill:#f40000;font-family:Roboto-Bold, Roboto;font-weight:700;}.cls-3{letter-spacing:-0.03em;}</style></defs><title>D</title><path class="cls-1" d="M339,685.52q0-145.54,0-291.07c.46,0,.93,0,1.39,0H449.67a200.66,200.66,0,0,1,20.69.79c3.6.37,7.21.72,10.79,1.2,5.61.75,11.17,1.81,16.69,3.08A169.46,169.46,0,0,1,541.52,416a134.58,134.58,0,0,1,44,37.92,128.44,128.44,0,0,1,21.74,45.64,130.77,130.77,0,0,1,3.06,16.6,89.36,89.36,0,0,1,.8,10.55c0,7.34,0,14.68,0,22,0,3.5,0,7-.36,10.49a140,140,0,0,1-2.52,16.89,127.22,127.22,0,0,1-19.57,45.52A132.15,132.15,0,0,1,551.06,658a164.54,164.54,0,0,1-42.55,19.49,175.92,175.92,0,0,1-25.8,5.69c-4.19.6-8.42,1-12.64,1.38s-8.28.61-12.42.7c-6.59.14-13.19.13-19.79.13H340.38C339.92,685.43,339.46,685.49,339,685.52ZM562,542a5.14,5.14,0,0,0-.45-.35L403.09,450.2s-.06,0-.09,0l-.09.05a1.12,1.12,0,0,0-.06.26q0,91.3,0,182.6a2.55,2.55,0,0,0,0,.37.16.16,0,0,0,0,.08,1.1,1.1,0,0,0,.19.1Z" transform="translate(-339 -345.51)"/><text class="cls-2" transform="translate(322 342.19)"><tspan class="cls-3">T</tspan><tspan x="234.77" y="0">ube</tspan></text></svg>