<svg id="Calque_1" data-name="Calque 1" xmlns="http://www.w3.org/2000/svg" viewBox="0 0 702.74 751.75"><defs><style>.cls-1{fill:red;}</style></defs><title>Sans titre - 2</title><path class="cls-1" d="M632.4,910.8q0-375.84,0-751.68l3.36,0H921.08c14.16,0,28.3.38,42.42,1.45,12.12.92,24.19,2.17,36.22,3.85q23.15,3.24,45.87,8.67a436.06,436.06,0,0,1,111.83,43.27c40.12,22.4,75.06,51,103.77,87,30.56,38.29,52.11,81.08,63.91,128.7a337.41,337.41,0,0,1,7.59,41.71,279.54,279.54,0,0,1,2.29,30.36q.2,24,.13,48,0,11-.51,22.06a319.14,319.14,0,0,1-3.81,36A325.38,325.38,0,0,1,1313.09,677c-22.31,57.87-58.08,105.81-106.78,144.12-31.73,25-66.85,43.92-104.44,58.43a448.76,448.76,0,0,1-73.54,21.27c-12.3,2.47-24.67,4.53-37.12,6-9.28,1.09-18.6,2-27.93,2.57-11.65.72-23.32,1.42-35,1.44q-146.26.17-292.52.06ZM847.11,701.54,1118,545.17c-1-.65-1.61-1.11-2.27-1.49L1084.8,525.8,885.26,410.58l-35.51-20.5c-.78-.45-1.62-.81-2.64-1.31Z" transform="translate(-632.4 -159.09)"/></svg>