<svg id="Calque_1" data-name="Calque 1" xmlns="http://www.w3.org/2000/svg" viewBox="0 0 1459 368"><defs><style>.cls-1{fill:#fff;}.cls-2{fill:red;}</style></defs><title>Plan de travail 1</title><path class="cls-1" d="M325.51,96.65q-20.1-37.72-55.93-58.18T188.35,18H2.6l99.54,57.47h86.22q41.86,0,63.62,27.08t21.76,79.58v18.21q-.48,50.61-22.47,77.8t-63.62,27.2H98.72L0,362.34H189.06q45.17-.23,81.12-20.81t55.69-57.94q19.74-37.36,19.75-85.37V182.38Q345.61,134.37,325.51,96.65Z"/><polygon class="cls-2" points="202.59 190.3 1.86 74.4 1.86 306.19 202.59 190.3"/><path class="cls-1" d="M671.62,76.41H566.14V363.27H495.2V76.41H391.14V18.94H671.62Z"/><path class="cls-1" d="M845.44,337.26Q820.13,368,775.43,368q-41.15,0-62.79-23.65t-22.11-69.29V107.39h68.35v165.5q0,40,36.42,40,34.76,0,47.77-24.15V107.39h68.58V363.27H847.33Z"/><path class="cls-1" d="M1193.78,237.69q0,61.49-26.25,95.9T1094.22,368q-41.63,0-66.45-31.93l-3.07,27.2H963.21V0h68.35V130.33q23.65-27.67,62.2-27.67,46.82,0,73.43,34.41t26.6,96.84Zm-68.35-5q0-38.78-12.3-56.64t-36.66-17.85q-32.64,0-44.93,26.72v101q12.53,27,45.41,27,33.11,0,43.51-32.64Q1125.44,264.65,1125.44,232.73Z"/><path class="cls-1" d="M1353.65,368q-56.29,0-91.64-34.53t-35.36-92v-6.62q0-38.54,14.9-68.94t42.21-46.82q27.31-16.43,62.31-16.44,52.5,0,82.65,33.11t30.15,93.89v27.91H1295.95q3.31,25.07,20,40.2t42.21,15.14q39.49,0,61.72-28.62l33.58,37.6q-15.38,21.76-41.62,33.94T1353.65,368Zm-7.8-210.24q-20.34,0-33,13.78T1296.66,211h95.07v-5.47q-.48-22.8-12.3-35.27T1345.85,157.76Z"/></svg>