<svg id="Layer_1" data-name="Layer 1" xmlns="http://www.w3.org/2000/svg" viewBox="0 0 1550 1020"><defs><style>.cls-1{fill:#223154;}.cls-2{fill:#f01a30;}</style></defs><title>New Logo D.tube_05.04.19</title><path class="cls-1" d="M725.91,610.29q-26.59,0-40.18-15.68t-13.59-41.37V452.86h48.39v90.21q0,12.55,5.68,19.27t17.33,6.72q12.55,0,19.72-8.51t7.17-22.25V452.86h48.69V605.81h-46.6V587h-.9a60.8,60.8,0,0,1-19,17.33Q742,610.28,725.91,610.29Z"/><path class="cls-2" d="M541,553.54h.94a26.19,26.19,0,0,1,26.19,26.19h0a26.19,26.19,0,0,1-26.19,26.19H541a26.19,26.19,0,0,1-26.19-26.19h0A26.19,26.19,0,0,1,541,553.54Z"/><path class="cls-1" d="M1085.93,609.93a88.12,88.12,0,0,1-33.11-6,70.37,70.37,0,0,1-25-16.55,73.47,73.47,0,0,1-15.68-25.12,87.54,87.54,0,0,1-5.52-31.37,85.56,85.56,0,0,1,5.52-30.93,73.85,73.85,0,0,1,15.68-25,72.41,72.41,0,0,1,24.11-16.55,84.67,84.67,0,0,1,59.68-1,71.29,71.29,0,0,1,22.22,13.65q13.35,12.2,19.89,30.93t6.24,41.39H1053.11q2.32,15.1,10.46,23.81t22.94,8.71q9.29,0,15.39-3.92a25,25,0,0,0,9.29-10.89h46.18a55,55,0,0,1-8.71,19.31,61.86,61.86,0,0,1-16.26,15.83,70.27,70.27,0,0,1-20.77,10.16A88.31,88.31,0,0,1,1085.93,609.93Zm26.14-94.68q-1.46-13.36-9-21.2t-19.17-7.84q-13.65,0-20.91,7.84t-9.58,21.2Z"/><path class="cls-1" d="M922.2,452.59c-14.68,0-29.29,5.64-41,12.8V409.91H833.31V605.77h46l.12-13.38c12.29,7.89,28.39,13.87,44.14,13.6,41.59-.72,75.43-35.24,75.35-76.84A76.71,76.71,0,0,0,922.2,452.59Zm35,77a34.44,34.44,0,0,1-34.44,34.44h-1.23a34.44,34.44,0,0,1-34.44-34.44h0a34.44,34.44,0,0,1,34.44-34.44h1.23a34.44,34.44,0,0,1,34.44,34.44Z"/><path class="cls-1" d="M507.54,469.51a92,92,0,0,0-18.88-31.89,84.49,84.49,0,0,0-29.23-20.42,95.38,95.38,0,0,0-37.76-7.27H336.35v200h82.24a116.67,116.67,0,0,0,34.13-4.62,84.64,84.64,0,0,0,26.85-13.57,83,83,0,0,0,25.73-33.43q8.95-20.56,9-47.13Q514.25,488.25,507.54,469.51ZM386.48,554.9V465l77.65,45Z"/><path class="cls-1" d="M583.55,490.75H559.64V452.86h23.91v-43H631v43h27.78v37.71H631v66.78q0,9,4.63,11.95t12.4,3q3.28,0,6.27-.15t4.48-.15v35.55a71.53,71.53,0,0,1-10,1.64,154.58,154.58,0,0,1-16.58.75A91.22,91.22,0,0,1,612.68,608a40.63,40.63,0,0,1-15.38-6.72,30.92,30.92,0,0,1-10.16-13q-3.59-8.21-3.59-20.46Z"/></svg>