<?xml version="1.0" encoding="utf-8"?>
<!-- Generator: Adobe Illustrator 21.1.0, SVG Export Plug-In . SVG Version: 6.00 Build 0)  -->
<svg version="1.1" id="Calque_1" xmlns="http://www.w3.org/2000/svg" xmlns:xlink="http://www.w3.org/1999/xlink" x="0px" y="0px"
	 viewBox="0 0 1459 354.9" style="enable-background:new 0 0 1459 354.9;" xml:space="preserve">
<style type="text/css">
	.st0{fill:#223154;}
	.st1{fill:#F01A30;}
</style>
<title>Plan de travail 1</title>
<path class="st0" d="M690,354.9c-31.4,0-55.1-9.3-71.2-27.8c-16.1-18.5-24.1-42.9-24.1-73.3V76.1h85.7v159.8
	c0,14.8,3.3,26.2,10.1,34.1c6.7,7.9,16.9,11.9,30.7,11.9c14.8,0,26.5-5,34.9-15.1c8.5-10.1,12.7-23.2,12.7-39.4V76.1h86.3V347h-82.5
	v-33.3H771c-9.9,13.4-21.1,23.6-33.6,30.7C724.9,351.4,709.1,354.9,690,354.9z"/>
<path class="st0" d="M319.2,76.1"/>
<path class="st0" d="M1327.8,354.3c-21.6,0-41.2-3.5-58.6-10.5c-17.5-7-32.2-16.8-44.2-29.3c-12-12.5-21.3-27.3-27.8-44.5
	c-6.5-17.1-9.8-35.7-9.8-55.6c0-19.5,3.3-37.8,9.8-54.8c6.5-17,15.8-31.7,27.8-44.2c12-12.5,26.2-22.3,42.7-29.3
	c16.5-7,34.8-10.5,55-10.5c18.9,0,35.8,2.9,50.7,8.7c14.9,5.8,28,13.9,39.4,24.2c15.8,14.4,27.5,32.7,35.2,54.8
	c7.7,22.1,11.4,46.6,11.1,73.3h-189.3c2.7,17.8,8.9,31.9,18.5,42.2c9.6,10.3,23.1,15.4,40.6,15.4c11,0,20.1-2.3,27.3-6.9
	c7.2-4.6,12.7-11.1,16.5-19.3h81.8c-2.7,12-7.9,23.4-15.4,34.2c-7.5,10.8-17.2,20.2-28.8,28c-11,7.9-23.2,13.9-36.8,18
	C1359.8,352.3,1344.6,354.3,1327.8,354.3z M1374.1,186.6c-1.7-15.8-7-28.3-15.9-37.6c-8.9-9.3-20.2-13.9-34-13.9
	c-16.1,0-28.5,4.6-37,13.9c-8.6,9.3-14.2,21.8-17,37.6H1374.1z"/>
<path class="st0" d="M1037.8,75.6c-26,0-51.9,10-72.5,22.7l0-98.3h-84.9v346.9h81.4l0.2-23.7c21.8,14,50.3,24.6,78.2,24.1
	c73.7-1.3,133.6-62.4,133.5-136.1C1173.5,136.3,1112.7,75.6,1037.8,75.6z M1099.8,212.1c0,33.7-27.3,61-61,61h-2.2
	c-33.7,0-61-27.3-61-61v0c0-33.7,27.3-61,61-61h2.2C1072.5,151.1,1099.8,178.4,1099.8,212.1L1099.8,212.1z"/>
<g>
	<path class="st1" d="M362.5,254.4h1.7c25.6,0,46.4,20.8,46.4,46.4v0c0,25.6-20.8,46.4-46.4,46.4h-1.7c-25.6,0-46.4-20.8-46.4-46.4
		v0C316.1,275.2,336.8,254.4,362.5,254.4z"/>
	<path class="st0" d="M303.2,105.6c-7.9-22.1-19.1-41-33.4-56.5c-14.4-15.5-31.6-27.6-51.8-36.2C197.9,4.3,175.6,0,151.1,0H0v354.3
		h145.7c22.5,0,42.6-2.7,60.4-8.2c17.8-5.5,33.7-13.5,47.6-24c19.8-15.2,35-34.9,45.6-59.2c10.6-24.3,15.9-52.1,15.9-83.5
		C315.1,152.3,311.2,127.7,303.2,105.6z M88.8,256.8V97.5l137.5,79.7L88.8,256.8z"/>
</g>
<g>
	<path class="st0" d="M437.9,143.2h-42.4V76.1h42.4V0H522v76.1h49.2v66.8H522v118.3c0,10.6,2.7,17.6,8.2,21.2
		c5.5,3.5,12.8,5.3,22,5.3c3.9,0,7.6-0.1,11.1-0.3c3.5-0.2,6.2-0.3,7.9-0.3v63c-3.9,1.1-9.8,2-17.7,2.9c-7.9,0.9-17.7,1.3-29.4,1.3
		c-12.7,0-24.3-1.1-34.7-3.4c-10.4-2.3-19.5-6.3-27.3-11.9c-7.8-5.6-13.8-13.3-18-23c-4.2-9.7-6.4-21.8-6.4-36.2V143.2z"/>
</g>
</svg>
